<svg xmlns="http://www.w3.org/2000/svg" width="20" height="16" viewBox="0 0 20 16">
  <path fill="#00B0B9" d="M12.5,8.5 C12.5,9.843875 11.3783333,10.9375 10,10.9375 C8.62166667,10.9375 7.5,9.843875 7.5,8.5 C7.5,7.156125 8.62166667,6.0625 10,6.0625 C11.3783333,6.0625 12.5,7.156125 12.5,8.5 Z M20,8.1351875 C20,8.1351875 16.4566667,15 10.0125,15 C4.02916667,15 0,8.1351875 0,8.1351875 C0,8.1351875 3.705,2 10.0125,2 C16.4241667,2 20,8.1351875 20,8.1351875 Z M14.1666667,8.5 C14.1666667,6.2599375 12.2975,4.4375 10,4.4375 C7.7025,4.4375 5.83333333,6.2599375 5.83333333,8.5 C5.83333333,10.7400625 7.7025,12.5625 10,12.5625 C12.2975,12.5625 14.1666667,10.7400625 14.1666667,8.5 Z" opacity=".802"/>
</svg>
