<svg xmlns="http://www.w3.org/2000/svg" width="20" height="16" viewBox="0 0 20 16">
  <g fill="none">
    <path fill="#CACACA" d="M11.9880857,9.9761714 C11.5308965,10.5600573 10.8097399,10.9375 10,10.9375 C8.62166667,10.9375 7.5,9.843875 7.5,8.5 C7.5,7.156125 8.62166667,6.0625 10,6.0625 C10.010463,6.0625 10.0209113,6.06256302 10.0313443,6.06268869 L11.9880857,9.9761714 Z" opacity=".802"/>
    <path fill="#CACACA" d="M11.3238234,4.6476467 L10.0000039,2.00000784 C10.0041682,2.00000268 10.0083335,2 10.0125,2 C16.4241667,2 20,8.1351875 20,8.1351875 C20,8.1351875 18.4631284,11.1127046 15.572917,13.145834 L13.9280013,9.85600256 C14.0825244,9.4317464 14.1666667,8.97527309 14.1666667,8.5 C14.1666667,6.71092942 12.9743745,5.18825083 11.3238234,4.6476467 Z M9.2515738,4.5031476 C7.30998595,4.84788923 5.83333333,6.50898152 5.83333333,8.5 C5.83333333,10.7400625 7.7025,12.5625 10,12.5625 C11.0611286,12.5625 12.0308864,12.1737436 12.7673185,11.5346369 L14.0294844,14.0589688 C12.8527444,14.6287715 11.5110564,15 10.0125,15 C4.02916667,15 0,8.1351875 0,8.1351875 C0,8.1351875 2.96128885,3.23152696 8.09606389,2.19212778 L9.2515738,4.5031476 Z" opacity=".802"/>
    <polygon fill="#D2D2D2" points="5 0 7 0 15 16 13 16"/>
  </g>
</svg>
