<?xml version="1.0" encoding="UTF-8"?>
<svg width="429px" height="70px" viewBox="0 0 429 70" version="1.1" xmlns="http://www.w3.org/2000/svg" xmlns:xlink="http://www.w3.org/1999/xlink">
    <title>Fitbit_Premium_lockup_White_RGB Copy</title>
    <g id="Fitbit_Premium_lockup_White_RGB-Copy" stroke="none" stroke-width="1" fill="none" fill-rule="evenodd">
        <g id="Fitbit_Premium_Lockup_Black_RGB---NEW" transform="translate(13.000000, 4.000000)" fill="#FFFFFF">
            <path d="M179.1216,32.5605 C179.1216,39.4611 175.1337,43.9194 168.9576,43.9194 C162.8613,43.9194 158.9217,39.4611 158.9217,32.5605 C158.9217,25.6599 162.8613,21.1995 168.9576,21.1995 C175.1337,21.1995 179.1216,25.6599 179.1216,32.5605 Z M169.5876,15.9495 C165.4401,15.9495 161.3682,17.7954 159.3627,20.5149 L159.3627,16.4535 L153.5457,16.4535 L153.5457,60.1335 L159.3627,60.1335 L159.3627,44.6901 C161.6622,47.3928 165.6291,49.1715 169.4637,49.1715 C178.9032,49.1715 185.0016,42.651 185.0016,32.5605 C185.0016,22.47 178.9515,15.9495 169.5876,15.9495 L169.5876,15.9495 Z" id="Fill-1"></path>
            <path d="M206.8836,15.9495 C203.175,15.9495 199.2543,18.5052 197.2236,22.1403 L197.2236,16.4535 L191.4066,16.4535 L191.4066,48.6675 L197.2236,48.6675 L197.2236,36.3405 C197.2236,27.1173 200.634,21.3885 206.1276,21.3885 C207.5556,21.3885 209.0151,21.6573 210.1323,22.1256 L210.4326,22.2516 L210.7644,16.7601 L210.777,16.5858 L210.6111,16.5291 C209.538,16.149 208.2486,15.9495 206.8836,15.9495" id="Fill-2"></path>
            <path d="M218.442,28.8645 C219.5592,23.8602 223.062,20.8845 227.8584,20.8845 C232.9698,20.8845 236.4936,23.9337 237.1131,28.8645 L218.442,28.8645 Z M227.8584,15.9495 C218.673,15.9495 212.2554,22.7808 212.2554,32.5605 C212.2554,42.1848 218.8725,49.1715 227.9865,49.1715 C235.4142,49.1715 240.7944,45.4566 242.382,39.2322 L242.4387,39.0054 L236.9493,37.7013 L236.8947,37.926 C235.977,41.7753 232.7304,43.9845 227.9865,43.9845 C222.4089,43.9845 218.547,39.9945 218.0892,33.7995 L243.1233,33.7995 L243.1443,33.5937 C243.2136,32.9826 243.2724,31.8444 243.2724,31.1115 C243.2724,22.3251 236.7897,15.9495 227.8584,15.9495 L227.8584,15.9495 Z" id="Fill-3"></path>
            <path d="M285.4383,15.9495 C281.0661,15.9495 277.2021,18.3372 275.2197,22.2201 C273.8946,18.2805 270.0621,15.9495 264.8394,15.9495 C260.6583,15.9495 257.3781,17.9529 255.4944,21.6216 L255.4944,16.4535 L249.6774,16.4535 L249.6774,48.6675 L255.4944,48.6675 L255.4944,32.4975 C255.4944,25.4898 258.6171,21.1365 263.6403,21.1365 C265.7004,21.1365 267.3993,21.8106 268.5585,23.0853 C269.682,24.3222 270.2763,26.0967 270.2763,28.2114 L270.2763,48.6675 L276.0954,48.6675 L276.0954,32.4975 C276.0954,25.4898 279.216,21.1365 284.2413,21.1365 C288.435,21.1365 290.9382,23.7825 290.9382,28.2114 L290.9382,48.6675 L296.7573,48.6675 L296.7573,27.1425 C296.7573,20.3427 292.3137,15.9495 285.4383,15.9495" id="Fill-4"></path>
            <polygon id="Fill-5" points="304.0422 48.6675 309.8613 48.6675 309.8613 16.4535 304.0422 16.4535"></polygon>
            <path d="M306.9213,2.9715 C304.668,2.9715 302.9712,4.6956 302.9712,6.9825 C302.9712,9.2316 304.668,10.9305 306.9213,10.9305 C309.2439,10.9305 310.9953,9.2316 310.9953,6.9825 C310.9953,4.6956 309.2439,2.9715 306.9213,2.9715" id="Fill-6"></path>
            <path d="M339.3831,30.6096 C339.3831,38.7807 335.7543,43.8564 329.9142,43.8564 C325.6911,43.8564 322.9632,41.055 322.9632,36.7185 L322.9632,16.4535 L317.1462,16.4535 L317.1462,37.7265 C317.1462,44.4654 321.9027,49.1715 328.7151,49.1715 C333.06,49.1715 336.9072,47.0295 339.3831,43.2642 L339.3831,48.6675 L345.2001,48.6675 L345.2001,16.4535 L339.3831,16.4535 L339.3831,30.6096" id="Fill-7"></path>
            <path d="M388.248,15.9495 C383.8758,15.9495 380.0118,18.3372 378.0294,22.2201 C376.7043,18.2805 372.8718,15.9495 367.6491,15.9495 C363.468,15.9495 360.1878,17.9529 358.3041,21.6216 L358.3041,16.4535 L352.4871,16.4535 L352.4871,48.6675 L358.3041,48.6675 L358.3041,32.4975 C358.3041,25.4898 361.4268,21.1365 366.45,21.1365 C368.5101,21.1365 370.209,21.8106 371.3682,23.0853 C372.4917,24.3222 373.086,26.0967 373.086,28.2114 L373.086,48.6675 L378.9051,48.6675 L378.9051,32.4975 C378.9051,25.4898 382.0257,21.1365 387.051,21.1365 C391.2447,21.1365 393.7479,23.7825 393.7479,28.2114 L393.7479,48.6675 L399.567,48.6675 L399.567,27.1425 C399.567,20.3427 395.1234,15.9495 388.248,15.9495" id="Fill-8"></path>
            <path d="M29.4294,4.2735 C27.4596,4.2735 25.8657,5.8695 25.8657,7.8372 C25.8657,9.8049 27.4596,11.4009 29.4294,11.4009 C31.3971,11.4009 32.9931,9.8049 32.9931,7.8372 C32.9931,5.8695 31.3971,4.2735 29.4294,4.2735" id="Fill-22"></path>
            <path d="M104.9307,4.2735 C102.963,4.2735 101.367,5.8695 101.367,7.8372 C101.367,9.8049 102.963,11.4009 104.9307,11.4009 C106.9005,11.4009 108.4965,9.8049 108.4965,7.8372 C108.4965,5.8695 106.9005,4.2735 104.9307,4.2735" id="Fill-23"></path>
            <polygon id="Fill-24" points="26.5881 48.6612 32.2686 48.6612 32.2686 16.8315 26.5881 16.8315"></polygon>
            <polygon id="Fill-25" points="102.0915 48.6612 107.7741 48.6612 107.7741 16.8315 102.0915 16.8315"></polygon>
            <path d="M133.0581,22.512 L133.0581,16.8315 L124.6959,16.8315 L124.6959,4.5129 L119.0133,4.5129 L119.0133,16.8315 L114.4395,16.8315 L114.4395,22.512 L119.0133,22.512 L119.0133,39.5388 C119.0133,44.5662 123.1041,48.657 128.1336,48.657 L133.0581,48.657 L133.0581,42.9765 L128.5809,42.9765 C126.2919,42.9765 124.6959,41.3322 124.6959,38.976 L124.6959,22.512 L133.0581,22.512" id="Fill-26"></path>
            <path d="M58.1196,22.512 L58.1196,16.8315 L49.7595,16.8315 L49.7595,4.5129 L44.0769,4.5129 L44.0769,16.8315 L39.501,16.8315 L39.501,22.512 L44.0769,22.512 L44.0769,39.5388 C44.0769,44.5662 48.1677,48.657 53.1972,48.657 L58.1196,48.657 L58.1196,42.9765 L53.6445,42.9765 C51.3555,42.9765 49.7595,41.3322 49.7595,38.976 L49.7595,22.512 L58.1196,22.512" id="Fill-27"></path>
            <path d="M4.662,10.269 L4.662,16.8315 L0.0861,16.8315 L0.0861,22.512 L4.662,22.512 L4.662,48.6591 L10.3446,48.6591 L10.3446,22.512 L19.4922,22.512 L19.4922,16.8315 L10.3446,16.8315 L10.3446,10.2711 C10.3446,7.875 12.0141,6.069 14.2296,6.069 L19.4922,6.069 L19.4922,0.3885 L14.5446,0.3885 C9.0951,0.3885 4.662,4.8195 4.662,10.269" id="Fill-28"></path>
            <path d="M80.8416,43.3839 C75.1464,43.3839 70.5285,38.619 70.5243,32.739 C70.5285,26.859 75.1464,22.0941 80.8416,22.0941 C86.5389,22.0941 91.1568,26.859 91.1589,32.739 C91.1568,38.619 86.5389,43.3839 80.8416,43.3839 Z M81.3855,16.2897 C76.2342,16.2855 72.6369,18.6585 70.4907,21.3549 L70.4907,0.4389 L64.6863,0.4389 L64.6863,48.6591 L70.4907,48.6591 L70.4907,44.1231 C72.6369,46.8195 76.2342,49.1925 81.3855,49.1883056 C90.3714,49.1841 96.9654,42.1365 96.9654,32.739 C96.9654,23.3415 90.3714,16.2939 81.3855,16.2897 L81.3855,16.2897 Z" id="Fill-29"></path>
            <path d="M407.5785,44.6334 L408.2589,44.6334 L409.5966,47.8527 L410.9364,44.6334 L411.6042,44.6334 L411.6042,48.6696 L411.0624,48.6696 L411.0624,45.6939 L409.8276,48.6696 L409.3677,48.6696 L408.1329,45.6939 L408.1329,48.6696 L407.5785,48.6696 L407.5785,44.6334 Z M405.2811,45.1416 L404.0148,45.1416 L404.0148,44.6334 L407.127,44.6334 L407.127,45.1416 L405.8607,45.1416 L405.8607,48.6696 L405.2811,48.6696 L405.2811,45.1416 L405.2811,45.1416 Z" id="Fill-30"></path>
        </g>
    </g>
</svg>